<svg width="1427" height="557" viewBox="0 0 1427 557" fill="none" xmlns="http://www.w3.org/2000/svg">
<path d="M835.595 436.956C836.188 435.102 838.812 435.102 839.405 436.956L844.127 451.721C844.392 452.549 845.162 453.111 846.032 453.111H861.381C863.31 453.111 864.121 455.575 862.568 456.721L850.097 465.925C849.407 466.434 849.119 467.327 849.38 468.144L854.131 482.997C854.722 484.845 852.599 486.367 851.038 485.215L838.688 476.1C837.982 475.578 837.018 475.578 836.312 476.1L823.962 485.215C822.401 486.367 820.278 484.845 820.869 482.997L825.62 468.144C825.881 467.327 825.593 466.434 824.903 465.925L812.432 456.721C810.879 455.575 811.69 453.111 813.619 453.111H828.968C829.838 453.111 830.608 452.549 830.873 451.721L835.595 436.956Z" fill="#D9D9D9"/>
<rect x="1121" y="134" width="149" height="237" rx="3" stroke="#F5F5F5" stroke-width="2" stroke-dasharray="5 5"/>
<rect x="526" y="133" width="149" height="237" rx="3" stroke="#F5F5F5" stroke-width="2" stroke-dasharray="5 5"/>
<rect x="725" y="133" width="149" height="237" rx="3" stroke="#F5F5F5" stroke-width="2" stroke-dasharray="5 5"/>
<rect x="923" y="136" width="149" height="237" rx="3" stroke="#F5F5F5" stroke-width="2" stroke-dasharray="5 5"/>
<path d="M1194.65 218.708C1196.05 217.69 1197.95 217.69 1199.35 218.708L1232.69 242.931C1234.09 243.95 1234.68 245.755 1234.14 247.403L1221.41 286.597C1220.87 288.245 1219.34 289.361 1217.61 289.361H1176.39C1174.66 289.361 1173.13 288.245 1172.59 286.597L1159.86 247.403C1159.32 245.755 1159.91 243.95 1161.31 242.931L1194.65 218.708Z" fill="url(#paint0_radial_378_318)"/>
<path d="M1197 463V463.75H1197.75V463H1197ZM890.47 462.47C890.177 462.763 890.177 463.237 890.47 463.53L895.243 468.303C895.536 468.596 896.01 468.596 896.303 468.303C896.596 468.01 896.596 467.536 896.303 467.243L892.061 463L896.303 458.757C896.596 458.464 896.596 457.99 896.303 457.697C896.01 457.404 895.536 457.404 895.243 457.697L890.47 462.47ZM1196.25 322V463H1197.75V322H1196.25ZM1197 462.25H891V463.75H1197V462.25Z" fill="url(#paint1_linear_378_318)"/>
<path fill-rule="evenodd" clip-rule="evenodd" d="M389 37H1317C1324.73 37 1331 43.268 1331 51V506C1331 513.732 1324.73 520 1317 520H389C381.268 520 375 513.732 375 506V397.859H374V506C374 514.284 380.716 521 389 521H1317C1325.28 521 1332 514.284 1332 506V51C1332 42.7157 1325.28 36 1317 36H389C380.716 36 374 42.7157 374 51V159.14H375V51C375 43.268 381.268 37 389 37Z" fill="white"/>
<path fill-rule="evenodd" clip-rule="evenodd" d="M145 166H333C340.732 166 347 172.268 347 180V210H348V180C348 171.716 341.284 165 333 165H145C136.716 165 130 171.716 130 180V371C130 379.284 136.716 386 145 386H333C341.284 386 348 379.284 348 371V341H347V371C347 378.732 340.732 385 333 385H145C137.268 385 131 378.732 131 371V180C131 172.268 137.268 166 145 166Z" fill="white"/>
<circle cx="165" cy="318" r="14" fill="#442DA1"/>
<path d="M160.167 321.208L163.417 317.958L160.167 314.708" stroke="white" stroke-linecap="round" stroke-linejoin="round"/>
<path d="M164.5 322.292H168.833" stroke="white" stroke-linecap="round" stroke-linejoin="round"/>
<rect x="185" y="214" width="141" height="61" rx="9" fill="#D9D9D9"/>
<rect x="185" y="288" width="141" height="61" rx="9" fill="#D9D9D9"/>
<path d="M491.869 463H491.119V463.75H491.869V463ZM491.869 305H492.619V304.25H491.869V305ZM331.47 304.47C331.177 304.763 331.177 305.237 331.47 305.53L336.243 310.303C336.536 310.596 337.01 310.596 337.303 310.303C337.596 310.01 337.596 309.536 337.303 309.243L333.061 305L337.303 300.757C337.596 300.464 337.596 299.99 337.303 299.697C337.01 299.404 336.536 299.404 336.243 299.697L331.47 304.47ZM783 462.25H491.869V463.75H783V462.25ZM492.619 463V305H491.119V463H492.619ZM491.869 304.25H332V305.75H491.869V304.25Z" fill="url(#paint2_linear_378_318)"/>
<path d="M219.284 252.24C217.551 252.24 216.211 251.64 215.264 250.44C214.317 249.227 213.844 247.433 213.844 245.06C213.844 242.7 214.317 240.9 215.264 239.66C216.211 238.42 217.551 237.8 219.284 237.8C220.404 237.8 221.344 238.067 222.104 238.6C222.877 239.133 223.477 239.86 223.904 240.78L222.924 241.36C222.617 240.6 222.151 240 221.524 239.56C220.911 239.107 220.164 238.88 219.284 238.88C217.977 238.88 216.957 239.347 216.224 240.28C215.491 241.213 215.124 242.547 215.124 244.28V245.86C215.124 247.58 215.491 248.893 216.224 249.8C216.957 250.707 217.977 251.16 219.284 251.16C220.217 251.16 220.997 250.927 221.624 250.46C222.251 249.98 222.717 249.34 223.024 248.54L224.004 249.12C223.591 250.08 222.984 250.84 222.184 251.4C221.384 251.96 220.417 252.24 219.284 252.24ZM230.428 252.24C229.748 252.24 229.134 252.12 228.588 251.88C228.041 251.64 227.574 251.293 227.188 250.84C226.801 250.373 226.501 249.807 226.288 249.14C226.074 248.473 225.968 247.72 225.968 246.88C225.968 246.04 226.074 245.293 226.288 244.64C226.501 243.973 226.801 243.413 227.188 242.96C227.574 242.493 228.041 242.14 228.588 241.9C229.134 241.647 229.748 241.52 230.428 241.52C231.108 241.52 231.721 241.647 232.268 241.9C232.814 242.14 233.281 242.493 233.668 242.96C234.054 243.413 234.354 243.973 234.568 244.64C234.781 245.293 234.888 246.04 234.888 246.88C234.888 247.72 234.781 248.473 234.568 249.14C234.354 249.807 234.054 250.373 233.668 250.84C233.281 251.293 232.814 251.64 232.268 251.88C231.721 252.12 231.108 252.24 230.428 252.24ZM230.428 251.22C231.428 251.22 232.214 250.907 232.788 250.28C233.374 249.653 233.668 248.733 233.668 247.52V246.24C233.668 245.04 233.374 244.127 232.788 243.5C232.214 242.86 231.428 242.54 230.428 242.54C229.428 242.54 228.634 242.853 228.048 243.48C227.474 244.107 227.188 245.027 227.188 246.24V247.52C227.188 248.72 227.474 249.64 228.048 250.28C228.634 250.907 229.428 251.22 230.428 251.22ZM237.784 252V241.76H238.924V243.38H238.984C239.21 242.847 239.564 242.407 240.044 242.06C240.524 241.7 241.177 241.52 242.004 241.52C243.097 241.52 243.944 241.86 244.544 242.54C245.157 243.207 245.464 244.167 245.464 245.42V252H244.324V245.62C244.324 244.58 244.097 243.807 243.644 243.3C243.204 242.793 242.557 242.54 241.704 242.54C241.344 242.54 240.997 242.587 240.664 242.68C240.33 242.773 240.03 242.913 239.764 243.1C239.51 243.287 239.304 243.527 239.144 243.82C238.997 244.1 238.924 244.427 238.924 244.8V252H237.784ZM251.953 252.24C251.06 252.24 250.293 252.073 249.653 251.74C249.027 251.407 248.48 250.92 248.013 250.28L248.853 249.62C249.28 250.18 249.747 250.593 250.253 250.86C250.76 251.127 251.353 251.26 252.033 251.26C252.82 251.26 253.427 251.093 253.853 250.76C254.28 250.427 254.493 249.947 254.493 249.32C254.493 248.773 254.327 248.347 253.993 248.04C253.673 247.72 253.14 247.507 252.393 247.4L251.553 247.26C251.087 247.193 250.66 247.093 250.273 246.96C249.887 246.827 249.553 246.647 249.273 246.42C249.007 246.193 248.793 245.92 248.633 245.6C248.487 245.267 248.413 244.867 248.413 244.4C248.413 243.92 248.5 243.5 248.673 243.14C248.86 242.78 249.107 242.48 249.413 242.24C249.72 242 250.087 241.82 250.513 241.7C250.94 241.58 251.4 241.52 251.893 241.52C252.747 241.52 253.447 241.667 253.993 241.96C254.54 242.253 255.007 242.633 255.393 243.1L254.633 243.8C254.367 243.48 254.007 243.187 253.553 242.92C253.113 242.64 252.54 242.5 251.833 242.5C251.1 242.5 250.527 242.66 250.113 242.98C249.713 243.3 249.513 243.753 249.513 244.34C249.513 244.94 249.693 245.373 250.053 245.64C250.427 245.907 250.98 246.1 251.713 246.22L252.533 246.34C253.573 246.5 254.34 246.813 254.833 247.28C255.34 247.733 255.593 248.373 255.593 249.2C255.593 250.16 255.267 250.907 254.613 251.44C253.973 251.973 253.087 252.24 251.953 252.24ZM264.985 250.38H264.905C264.811 250.62 264.685 250.853 264.525 251.08C264.365 251.307 264.165 251.507 263.925 251.68C263.685 251.84 263.398 251.973 263.065 252.08C262.745 252.187 262.365 252.24 261.925 252.24C260.831 252.24 259.978 251.907 259.365 251.24C258.751 250.56 258.445 249.593 258.445 248.34V241.76H259.585V248.12C259.585 249.173 259.811 249.953 260.265 250.46C260.718 250.967 261.371 251.22 262.225 251.22C262.585 251.22 262.925 251.173 263.245 251.08C263.578 250.987 263.871 250.847 264.125 250.66C264.391 250.473 264.598 250.24 264.745 249.96C264.905 249.667 264.985 249.327 264.985 248.94V241.76H266.125V252H264.985V250.38ZM271.114 252C270.701 252 270.387 251.887 270.174 251.66C269.961 251.433 269.854 251.133 269.854 250.76V237.2H270.994V251H272.574V252H271.114ZM276.79 252C276.377 252 276.063 251.887 275.85 251.66C275.637 251.433 275.53 251.127 275.53 250.74V242.76H273.75V241.76H274.91C275.19 241.76 275.377 241.707 275.47 241.6C275.577 241.48 275.63 241.273 275.63 240.98V238.9H276.67V241.76H278.99V242.76H276.67V251H278.83V252H276.79ZM288.769 252C288.329 252 288.009 251.887 287.809 251.66C287.609 251.433 287.496 251.127 287.469 250.74V250.38H287.369C287.142 250.953 286.769 251.407 286.249 251.74C285.729 252.073 285.069 252.24 284.269 252.24C283.189 252.24 282.356 251.98 281.769 251.46C281.182 250.927 280.889 250.18 280.889 249.22C280.889 248.313 281.209 247.593 281.849 247.06C282.502 246.527 283.569 246.26 285.049 246.26H287.409V245.06C287.409 243.367 286.536 242.52 284.789 242.52C284.109 242.52 283.542 242.667 283.089 242.96C282.636 243.24 282.269 243.647 281.989 244.18L281.269 243.58C281.549 242.98 281.976 242.487 282.549 242.1C283.136 241.713 283.896 241.52 284.829 241.52C286.029 241.52 286.949 241.82 287.589 242.42C288.229 243.02 288.549 243.86 288.549 244.94V251H289.929V252H288.769ZM284.429 251.26C284.842 251.26 285.229 251.207 285.589 251.1C285.949 250.993 286.262 250.847 286.529 250.66C286.809 250.46 287.022 250.227 287.169 249.96C287.329 249.68 287.409 249.367 287.409 249.02V247.12H285.009C283.982 247.12 283.236 247.287 282.769 247.62C282.316 247.94 282.089 248.387 282.089 248.96V249.44C282.089 250.04 282.302 250.493 282.729 250.8C283.156 251.107 283.722 251.26 284.429 251.26Z" fill="black"/>
<path d="M212.618 323H211.418V309.04H216.898C218.098 309.04 219.018 309.38 219.658 310.06C220.311 310.74 220.638 311.693 220.638 312.92C220.638 314 220.371 314.873 219.838 315.54C219.318 316.207 218.558 316.607 217.558 316.74L220.998 323H219.658L216.318 316.82H212.618V323ZM216.898 315.8C217.698 315.8 218.304 315.58 218.718 315.14C219.144 314.687 219.358 314.113 219.358 313.42V312.46C219.358 311.78 219.144 311.22 218.718 310.78C218.304 310.327 217.698 310.1 216.898 310.1H212.618V315.8H216.898ZM227.379 323.24C226.699 323.24 226.079 323.12 225.519 322.88C224.973 322.64 224.499 322.293 224.099 321.84C223.713 321.373 223.413 320.807 223.199 320.14C222.999 319.473 222.899 318.72 222.899 317.88C222.899 317.04 222.999 316.293 223.199 315.64C223.413 314.973 223.713 314.413 224.099 313.96C224.499 313.493 224.973 313.14 225.519 312.9C226.066 312.647 226.679 312.52 227.359 312.52C228.013 312.52 228.606 312.647 229.139 312.9C229.673 313.14 230.126 313.48 230.499 313.92C230.873 314.36 231.159 314.893 231.359 315.52C231.573 316.133 231.679 316.813 231.679 317.56V318.1H224.099V318.6C224.099 319.133 224.173 319.627 224.319 320.08C224.479 320.52 224.699 320.9 224.979 321.22C225.273 321.54 225.626 321.793 226.039 321.98C226.453 322.153 226.919 322.24 227.439 322.24C228.933 322.24 229.966 321.553 230.539 320.18L231.379 320.74C231.059 321.5 230.553 322.107 229.859 322.56C229.179 323.013 228.353 323.24 227.379 323.24ZM227.359 313.48C226.866 313.48 226.419 313.573 226.019 313.76C225.619 313.933 225.273 314.18 224.979 314.5C224.699 314.82 224.479 315.207 224.319 315.66C224.173 316.1 224.099 316.587 224.099 317.12V317.22H230.439V317.06C230.439 316.527 230.366 316.04 230.219 315.6C230.073 315.147 229.859 314.767 229.579 314.46C229.313 314.153 228.986 313.913 228.599 313.74C228.226 313.567 227.813 313.48 227.359 313.48ZM237.479 323.24C236.585 323.24 235.819 323.073 235.179 322.74C234.552 322.407 234.005 321.92 233.539 321.28L234.379 320.62C234.805 321.18 235.272 321.593 235.779 321.86C236.285 322.127 236.879 322.26 237.559 322.26C238.345 322.26 238.952 322.093 239.379 321.76C239.805 321.427 240.019 320.947 240.019 320.32C240.019 319.773 239.852 319.347 239.519 319.04C239.199 318.72 238.665 318.507 237.919 318.4L237.079 318.26C236.612 318.193 236.185 318.093 235.799 317.96C235.412 317.827 235.079 317.647 234.799 317.42C234.532 317.193 234.319 316.92 234.159 316.6C234.012 316.267 233.939 315.867 233.939 315.4C233.939 314.92 234.025 314.5 234.199 314.14C234.385 313.78 234.632 313.48 234.939 313.24C235.245 313 235.612 312.82 236.039 312.7C236.465 312.58 236.925 312.52 237.419 312.52C238.272 312.52 238.972 312.667 239.519 312.96C240.065 313.253 240.532 313.633 240.919 314.1L240.159 314.8C239.892 314.48 239.532 314.187 239.079 313.92C238.639 313.64 238.065 313.5 237.359 313.5C236.625 313.5 236.052 313.66 235.639 313.98C235.239 314.3 235.039 314.753 235.039 315.34C235.039 315.94 235.219 316.373 235.579 316.64C235.952 316.907 236.505 317.1 237.239 317.22L238.059 317.34C239.099 317.5 239.865 317.813 240.359 318.28C240.865 318.733 241.119 319.373 241.119 320.2C241.119 321.16 240.792 321.907 240.139 322.44C239.499 322.973 238.612 323.24 237.479 323.24ZM244.11 312.76H245.25V314.4H245.31C245.563 313.827 245.95 313.373 246.47 313.04C246.99 312.693 247.643 312.52 248.43 312.52C249.75 312.52 250.783 312.987 251.53 313.92C252.277 314.853 252.65 316.173 252.65 317.88C252.65 319.587 252.277 320.907 251.53 321.84C250.783 322.773 249.75 323.24 248.43 323.24C247.643 323.24 246.997 323.073 246.49 322.74C245.983 322.393 245.59 321.933 245.31 321.36H245.25V327H244.11V312.76ZM248.17 322.22C249.197 322.22 249.997 321.893 250.57 321.24C251.143 320.587 251.43 319.707 251.43 318.6V317.16C251.43 316.053 251.143 315.173 250.57 314.52C249.997 313.867 249.197 313.54 248.17 313.54C247.77 313.54 247.39 313.6 247.03 313.72C246.683 313.827 246.377 313.98 246.11 314.18C245.843 314.38 245.63 314.62 245.47 314.9C245.323 315.18 245.25 315.487 245.25 315.82V319.88C245.25 320.24 245.323 320.567 245.47 320.86C245.63 321.14 245.843 321.387 246.11 321.6C246.377 321.8 246.683 321.953 247.03 322.06C247.39 322.167 247.77 322.22 248.17 322.22ZM261.994 321.38H261.914C261.821 321.62 261.694 321.853 261.534 322.08C261.374 322.307 261.174 322.507 260.934 322.68C260.694 322.84 260.408 322.973 260.074 323.08C259.754 323.187 259.374 323.24 258.934 323.24C257.841 323.24 256.988 322.907 256.374 322.24C255.761 321.56 255.454 320.593 255.454 319.34V312.76H256.594V319.12C256.594 320.173 256.821 320.953 257.274 321.46C257.728 321.967 258.381 322.22 259.234 322.22C259.594 322.22 259.934 322.173 260.254 322.08C260.588 321.987 260.881 321.847 261.134 321.66C261.401 321.473 261.608 321.24 261.754 320.96C261.914 320.667 261.994 320.327 261.994 319.94V312.76H263.134V323H261.994V321.38ZM270.524 323.24C269.844 323.24 269.224 323.12 268.664 322.88C268.117 322.64 267.644 322.293 267.244 321.84C266.857 321.373 266.557 320.807 266.344 320.14C266.144 319.473 266.044 318.72 266.044 317.88C266.044 317.04 266.144 316.293 266.344 315.64C266.557 314.973 266.857 314.413 267.244 313.96C267.644 313.493 268.117 313.14 268.664 312.9C269.211 312.647 269.824 312.52 270.504 312.52C271.157 312.52 271.751 312.647 272.284 312.9C272.817 313.14 273.271 313.48 273.644 313.92C274.017 314.36 274.304 314.893 274.504 315.52C274.717 316.133 274.824 316.813 274.824 317.56V318.1H267.244V318.6C267.244 319.133 267.317 319.627 267.464 320.08C267.624 320.52 267.844 320.9 268.124 321.22C268.417 321.54 268.771 321.793 269.184 321.98C269.597 322.153 270.064 322.24 270.584 322.24C272.077 322.24 273.111 321.553 273.684 320.18L274.524 320.74C274.204 321.5 273.697 322.107 273.004 322.56C272.324 323.013 271.497 323.24 270.524 323.24ZM270.504 313.48C270.011 313.48 269.564 313.573 269.164 313.76C268.764 313.933 268.417 314.18 268.124 314.5C267.844 314.82 267.624 315.207 267.464 315.66C267.317 316.1 267.244 316.587 267.244 317.12V317.22H273.584V317.06C273.584 316.527 273.511 316.04 273.364 315.6C273.217 315.147 273.004 314.767 272.724 314.46C272.457 314.153 272.131 313.913 271.744 313.74C271.371 313.567 270.957 313.48 270.504 313.48ZM280.623 323.24C279.73 323.24 278.963 323.073 278.323 322.74C277.697 322.407 277.15 321.92 276.683 321.28L277.523 320.62C277.95 321.18 278.417 321.593 278.923 321.86C279.43 322.127 280.023 322.26 280.703 322.26C281.49 322.26 282.097 322.093 282.523 321.76C282.95 321.427 283.163 320.947 283.163 320.32C283.163 319.773 282.997 319.347 282.663 319.04C282.343 318.72 281.81 318.507 281.063 318.4L280.223 318.26C279.757 318.193 279.33 318.093 278.943 317.96C278.557 317.827 278.223 317.647 277.943 317.42C277.677 317.193 277.463 316.92 277.303 316.6C277.157 316.267 277.083 315.867 277.083 315.4C277.083 314.92 277.17 314.5 277.343 314.14C277.53 313.78 277.777 313.48 278.083 313.24C278.39 313 278.757 312.82 279.183 312.7C279.61 312.58 280.07 312.52 280.563 312.52C281.417 312.52 282.117 312.667 282.663 312.96C283.21 313.253 283.677 313.633 284.063 314.1L283.303 314.8C283.037 314.48 282.677 314.187 282.223 313.92C281.783 313.64 281.21 313.5 280.503 313.5C279.77 313.5 279.197 313.66 278.783 313.98C278.383 314.3 278.183 314.753 278.183 315.34C278.183 315.94 278.363 316.373 278.723 316.64C279.097 316.907 279.65 317.1 280.383 317.22L281.203 317.34C282.243 317.5 283.01 317.813 283.503 318.28C284.01 318.733 284.263 319.373 284.263 320.2C284.263 321.16 283.937 321.907 283.283 322.44C282.643 322.973 281.757 323.24 280.623 323.24ZM288.936 323C288.523 323 288.21 322.887 287.996 322.66C287.783 322.433 287.676 322.127 287.676 321.74V313.76H285.896V312.76H287.056C287.336 312.76 287.523 312.707 287.616 312.6C287.723 312.48 287.776 312.273 287.776 311.98V309.9H288.816V312.76H291.136V313.76H288.816V322H290.976V323H288.936ZM300.916 323C300.476 323 300.156 322.887 299.956 322.66C299.756 322.433 299.642 322.127 299.616 321.74V321.38H299.516C299.289 321.953 298.916 322.407 298.396 322.74C297.876 323.073 297.216 323.24 296.416 323.24C295.336 323.24 294.502 322.98 293.916 322.46C293.329 321.927 293.036 321.18 293.036 320.22C293.036 319.313 293.356 318.593 293.996 318.06C294.649 317.527 295.716 317.26 297.196 317.26H299.556V316.06C299.556 314.367 298.682 313.52 296.936 313.52C296.256 313.52 295.689 313.667 295.236 313.96C294.782 314.24 294.416 314.647 294.136 315.18L293.416 314.58C293.696 313.98 294.122 313.487 294.696 313.1C295.282 312.713 296.042 312.52 296.976 312.52C298.176 312.52 299.096 312.82 299.736 313.42C300.376 314.02 300.696 314.86 300.696 315.94V322H302.076V323H300.916ZM296.576 322.26C296.989 322.26 297.376 322.207 297.736 322.1C298.096 321.993 298.409 321.847 298.676 321.66C298.956 321.46 299.169 321.227 299.316 320.96C299.476 320.68 299.556 320.367 299.556 320.02V318.12H297.156C296.129 318.12 295.382 318.287 294.916 318.62C294.462 318.94 294.236 319.387 294.236 319.96V320.44C294.236 321.04 294.449 321.493 294.876 321.8C295.302 322.107 295.869 322.26 296.576 322.26Z" fill="black"/>
<circle cx="165" cy="244" r="14" fill="#A12D49"/>
<path d="M168.833 249.375V248.292C168.833 247.717 168.605 247.166 168.199 246.76C167.792 246.353 167.241 246.125 166.667 246.125H162.333C161.759 246.125 161.208 246.353 160.801 246.76C160.395 247.166 160.167 247.717 160.167 248.292V249.375" stroke="white" stroke-linecap="round" stroke-linejoin="round"/>
<path d="M164.5 243.958C165.697 243.958 166.667 242.988 166.667 241.792C166.667 240.595 165.697 239.625 164.5 239.625C163.303 239.625 162.333 240.595 162.333 241.792C162.333 242.988 163.303 243.958 164.5 243.958Z" stroke="white" stroke-linecap="round" stroke-linejoin="round"/>
<path d="M492.707 252.707C493.098 252.317 493.098 251.683 492.707 251.293L486.343 244.929C485.953 244.538 485.319 244.538 484.929 244.929C484.538 245.319 484.538 245.953 484.929 246.343L490.586 252L484.929 257.657C484.538 258.047 484.538 258.681 484.929 259.071C485.319 259.462 485.953 259.462 486.343 259.071L492.707 252.707ZM332 253L492 253V251L332 251V253Z" fill="url(#paint3_linear_378_318)"/>
<path d="M568.083 167.167H553.5C552.395 167.167 551.335 167.606 550.554 168.387C549.772 169.169 549.333 170.228 549.333 171.333V204.667C549.333 205.772 549.772 206.832 550.554 207.613C551.335 208.394 552.395 208.833 553.5 208.833H578.5C579.605 208.833 580.665 208.394 581.446 207.613C582.228 206.832 582.667 205.772 582.667 204.667V181.75L568.083 167.167Z" stroke="#D9D9D9" stroke-width="1.5" stroke-linecap="round" stroke-linejoin="round"/>
<path d="M568.083 167.167V181.75H582.667" stroke="#D9D9D9" stroke-width="1.5" stroke-linecap="round" stroke-linejoin="round"/>
<path d="M563.917 240.417L553.5 248.75H545.167V261.25H553.5L563.917 269.583V240.417Z" stroke="#D9D9D9" stroke-width="1.5" stroke-linecap="round" stroke-linejoin="round"/>
<path d="M580.729 240.271C584.635 244.178 586.829 249.476 586.829 255C586.829 260.524 584.635 265.822 580.729 269.729M573.375 247.625C575.328 249.578 576.425 252.227 576.425 254.99C576.425 257.752 575.328 260.401 573.375 262.354" stroke="#D9D9D9" stroke-width="1.5" stroke-linecap="round" stroke-linejoin="round"/>
<path d="M657.917 244.583L643.333 255L657.917 265.417V244.583Z" stroke="#D9D9D9" stroke-width="1.5" stroke-linecap="round" stroke-linejoin="round"/>
<path d="M639.167 240.417H616.25C613.949 240.417 612.083 242.282 612.083 244.583V265.417C612.083 267.718 613.949 269.583 616.25 269.583H639.167C641.468 269.583 643.333 267.718 643.333 265.417V244.583C643.333 242.282 641.468 240.417 639.167 240.417Z" stroke="#D9D9D9" stroke-width="1.5" stroke-linecap="round" stroke-linejoin="round"/>
<path d="M615.583 297.25H586.417C584.115 297.25 582.25 299.115 582.25 301.417V330.583C582.25 332.885 584.115 334.75 586.417 334.75H615.583C617.885 334.75 619.75 332.885 619.75 330.583V301.417C619.75 299.115 617.885 297.25 615.583 297.25Z" stroke="#D9D9D9" stroke-width="1.5" stroke-linecap="round" stroke-linejoin="round"/>
<path d="M582.25 309.75H619.75" stroke="#D9D9D9" stroke-width="1.5" stroke-linecap="round" stroke-linejoin="round"/>
<path d="M594.75 334.75V309.75" stroke="#D9D9D9" stroke-width="1.5" stroke-linecap="round" stroke-linejoin="round"/>
<path d="M614.167 169.25H626.667C628.877 169.25 630.996 170.128 632.559 171.691C634.122 173.254 635 175.373 635 177.583V206.75C635 205.092 634.341 203.503 633.169 202.331C631.997 201.158 630.408 200.5 628.75 200.5H614.167V169.25Z" stroke="#D9D9D9" stroke-width="1.5" stroke-linecap="round" stroke-linejoin="round"/>
<path d="M655.833 169.25H643.333C641.123 169.25 639.004 170.128 637.441 171.691C635.878 173.254 635 175.373 635 177.583V206.75C635 205.092 635.658 203.503 636.831 202.331C638.003 201.158 639.592 200.5 641.25 200.5H655.833V169.25Z" stroke="#D9D9D9" stroke-width="1.5" stroke-linecap="round" stroke-linejoin="round"/>
<path d="M600 82V88" stroke="#D9D9D9" stroke-opacity="0.95" stroke-width="2.25" stroke-linecap="round" stroke-linejoin="round"/>
<path d="M600 106V112" stroke="#D9D9D9" stroke-opacity="0.75" stroke-width="2.25" stroke-linecap="round" stroke-linejoin="round"/>
<path d="M589.395 86.395L593.64 90.64" stroke="#D9D9D9" stroke-opacity="0.9" stroke-width="2.25" stroke-linecap="round" stroke-linejoin="round"/>
<path d="M606.36 103.36L610.605 107.605" stroke="#D9D9D9" stroke-opacity="0.7" stroke-width="2.25" stroke-linecap="round" stroke-linejoin="round"/>
<path d="M585 97H591" stroke="#D9D9D9" stroke-opacity="0.85" stroke-width="2.25" stroke-linecap="round" stroke-linejoin="round"/>
<path d="M609 97H615" stroke="#D9D9D9" stroke-opacity="0.65" stroke-width="2.25" stroke-linecap="round" stroke-linejoin="round"/>
<path d="M589.395 107.605L593.64 103.36" stroke="#D9D9D9" stroke-opacity="0.8" stroke-width="2.25" stroke-linecap="round" stroke-linejoin="round"/>
<path d="M606.36 90.64L610.605 86.395" stroke="#D9D9D9" stroke-opacity="0.6" stroke-width="2.25" stroke-linecap="round" stroke-linejoin="round"/>
<path d="M765.511 103V89.04H773.491V90.1H766.711V95.38H773.031V96.44H766.711V103H765.511ZM782.319 101.38H782.239C782.145 101.62 782.019 101.853 781.859 102.08C781.699 102.307 781.499 102.507 781.259 102.68C781.019 102.84 780.732 102.973 780.399 103.08C780.079 103.187 779.699 103.24 779.259 103.24C778.165 103.24 777.312 102.907 776.699 102.24C776.085 101.56 775.779 100.593 775.779 99.34V92.76H776.919V99.12C776.919 100.173 777.145 100.953 777.599 101.46C778.052 101.967 778.705 102.22 779.559 102.22C779.919 102.22 780.259 102.173 780.579 102.08C780.912 101.987 781.205 101.847 781.459 101.66C781.725 101.473 781.932 101.24 782.079 100.96C782.239 100.667 782.319 100.327 782.319 99.94V92.76H783.459V103H782.319V101.38ZM790.848 103.24C790.168 103.24 789.548 103.12 788.988 102.88C788.441 102.64 787.968 102.293 787.568 101.84C787.181 101.373 786.881 100.807 786.668 100.14C786.468 99.4733 786.368 98.72 786.368 97.88C786.368 97.04 786.468 96.2933 786.668 95.64C786.881 94.9733 787.181 94.4133 787.568 93.96C787.968 93.4933 788.441 93.14 788.988 92.9C789.535 92.6467 790.148 92.52 790.828 92.52C791.481 92.52 792.075 92.6467 792.608 92.9C793.141 93.14 793.595 93.48 793.968 93.92C794.341 94.36 794.628 94.8933 794.828 95.52C795.041 96.1333 795.148 96.8133 795.148 97.56V98.1H787.568V98.6C787.568 99.1333 787.641 99.6267 787.788 100.08C787.948 100.52 788.168 100.9 788.448 101.22C788.741 101.54 789.095 101.793 789.508 101.98C789.921 102.153 790.388 102.24 790.908 102.24C792.401 102.24 793.435 101.553 794.008 100.18L794.848 100.74C794.528 101.5 794.021 102.107 793.328 102.56C792.648 103.013 791.821 103.24 790.848 103.24ZM790.828 93.48C790.335 93.48 789.888 93.5733 789.488 93.76C789.088 93.9333 788.741 94.18 788.448 94.5C788.168 94.82 787.948 95.2067 787.788 95.66C787.641 96.1 787.568 96.5867 787.568 97.12V97.22H793.908V97.06C793.908 96.5267 793.835 96.04 793.688 95.6C793.541 95.1467 793.328 94.7667 793.048 94.46C792.781 94.1533 792.455 93.9133 792.068 93.74C791.695 93.5667 791.281 93.48 790.828 93.48ZM798.048 103V92.76H799.188V94.38H799.248C799.474 93.8467 799.828 93.4067 800.308 93.06C800.788 92.7 801.441 92.52 802.268 92.52C803.361 92.52 804.208 92.86 804.808 93.54C805.421 94.2067 805.728 95.1667 805.728 96.42V103H804.588V96.62C804.588 95.58 804.361 94.8067 803.908 94.3C803.468 93.7933 802.821 93.54 801.968 93.54C801.608 93.54 801.261 93.5867 800.928 93.68C800.594 93.7733 800.294 93.9133 800.028 94.1C799.774 94.2867 799.568 94.5267 799.408 94.82C799.261 95.1 799.188 95.4267 799.188 95.8V103H798.048ZM811.077 103C810.664 103 810.35 102.887 810.137 102.66C809.924 102.433 809.817 102.127 809.817 101.74V93.76H808.037V92.76H809.197C809.477 92.76 809.664 92.7067 809.757 92.6C809.864 92.48 809.917 92.2733 809.917 91.98V89.9H810.957V92.76H813.277V93.76H810.957V102H813.117V103H811.077ZM819.598 103.24C818.918 103.24 818.298 103.12 817.738 102.88C817.191 102.64 816.718 102.293 816.318 101.84C815.931 101.373 815.631 100.807 815.418 100.14C815.218 99.4733 815.118 98.72 815.118 97.88C815.118 97.04 815.218 96.2933 815.418 95.64C815.631 94.9733 815.931 94.4133 816.318 93.96C816.718 93.4933 817.191 93.14 817.738 92.9C818.285 92.6467 818.898 92.52 819.578 92.52C820.231 92.52 820.825 92.6467 821.358 92.9C821.891 93.14 822.345 93.48 822.718 93.92C823.091 94.36 823.378 94.8933 823.578 95.52C823.791 96.1333 823.898 96.8133 823.898 97.56V98.1H816.318V98.6C816.318 99.1333 816.391 99.6267 816.538 100.08C816.698 100.52 816.918 100.9 817.198 101.22C817.491 101.54 817.845 101.793 818.258 101.98C818.671 102.153 819.138 102.24 819.658 102.24C821.151 102.24 822.185 101.553 822.758 100.18L823.598 100.74C823.278 101.5 822.771 102.107 822.078 102.56C821.398 103.013 820.571 103.24 819.598 103.24ZM819.578 93.48C819.085 93.48 818.638 93.5733 818.238 93.76C817.838 93.9333 817.491 94.18 817.198 94.5C816.918 94.82 816.698 95.2067 816.538 95.66C816.391 96.1 816.318 96.5867 816.318 97.12V97.22H822.658V97.06C822.658 96.5267 822.585 96.04 822.438 95.6C822.291 95.1467 822.078 94.7667 821.798 94.46C821.531 94.1533 821.205 93.9133 820.818 93.74C820.445 93.5667 820.031 93.48 819.578 93.48ZM829.698 103.24C828.804 103.24 828.038 103.073 827.398 102.74C826.771 102.407 826.224 101.92 825.758 101.28L826.598 100.62C827.024 101.18 827.491 101.593 827.998 101.86C828.504 102.127 829.098 102.26 829.778 102.26C830.564 102.26 831.171 102.093 831.598 101.76C832.024 101.427 832.238 100.947 832.238 100.32C832.238 99.7733 832.071 99.3467 831.738 99.04C831.418 98.72 830.884 98.5067 830.138 98.4L829.298 98.26C828.831 98.1933 828.404 98.0933 828.018 97.96C827.631 97.8267 827.298 97.6467 827.018 97.42C826.751 97.1933 826.538 96.92 826.378 96.6C826.231 96.2667 826.158 95.8667 826.158 95.4C826.158 94.92 826.244 94.5 826.418 94.14C826.604 93.78 826.851 93.48 827.158 93.24C827.464 93 827.831 92.82 828.258 92.7C828.684 92.58 829.144 92.52 829.638 92.52C830.491 92.52 831.191 92.6667 831.738 92.96C832.284 93.2533 832.751 93.6333 833.138 94.1L832.378 94.8C832.111 94.48 831.751 94.1867 831.298 93.92C830.858 93.64 830.284 93.5 829.578 93.5C828.844 93.5 828.271 93.66 827.858 93.98C827.458 94.3 827.258 94.7533 827.258 95.34C827.258 95.94 827.438 96.3733 827.798 96.64C828.171 96.9067 828.724 97.1 829.458 97.22L830.278 97.34C831.318 97.5 832.084 97.8133 832.578 98.28C833.084 98.7333 833.338 99.3733 833.338 100.2C833.338 101.16 833.011 101.907 832.358 102.44C831.718 102.973 830.831 103.24 829.698 103.24Z" fill="white"/>
<path d="M974.302 90.68H974.242V103H973.082V89.04H974.582L981.922 101.36H981.982V89.04H983.142V103H981.642L974.302 90.68ZM990.625 103.24C989.945 103.24 989.332 103.12 988.785 102.88C988.238 102.64 987.772 102.293 987.385 101.84C986.998 101.373 986.698 100.807 986.485 100.14C986.272 99.4733 986.165 98.72 986.165 97.88C986.165 97.04 986.272 96.2933 986.485 95.64C986.698 94.9733 986.998 94.4133 987.385 93.96C987.772 93.4933 988.238 93.14 988.785 92.9C989.332 92.6467 989.945 92.52 990.625 92.52C991.305 92.52 991.918 92.6467 992.465 92.9C993.012 93.14 993.478 93.4933 993.865 93.96C994.252 94.4133 994.552 94.9733 994.765 95.64C994.978 96.2933 995.085 97.04 995.085 97.88C995.085 98.72 994.978 99.4733 994.765 100.14C994.552 100.807 994.252 101.373 993.865 101.84C993.478 102.293 993.012 102.64 992.465 102.88C991.918 103.12 991.305 103.24 990.625 103.24ZM990.625 102.22C991.625 102.22 992.412 101.907 992.985 101.28C993.572 100.653 993.865 99.7333 993.865 98.52V97.24C993.865 96.04 993.572 95.1267 992.985 94.5C992.412 93.86 991.625 93.54 990.625 93.54C989.625 93.54 988.832 93.8533 988.245 94.48C987.672 95.1067 987.385 96.0267 987.385 97.24V98.52C987.385 99.72 987.672 100.64 988.245 101.28C988.832 101.907 989.625 102.22 990.625 102.22ZM999.741 103C999.328 103 999.014 102.887 998.801 102.66C998.588 102.433 998.481 102.127 998.481 101.74V93.76H996.701V92.76H997.861C998.141 92.76 998.328 92.7067 998.421 92.6C998.528 92.48 998.581 92.2733 998.581 91.98V89.9H999.621V92.76H1001.94V93.76H999.621V102H1001.78V103H999.741ZM1011.72 103C1011.28 103 1010.96 102.887 1010.76 102.66C1010.56 102.433 1010.45 102.127 1010.42 101.74V101.38H1010.32C1010.09 101.953 1009.72 102.407 1009.2 102.74C1008.68 103.073 1008.02 103.24 1007.22 103.24C1006.14 103.24 1005.31 102.98 1004.72 102.46C1004.13 101.927 1003.84 101.18 1003.84 100.22C1003.84 99.3133 1004.16 98.5933 1004.8 98.06C1005.45 97.5267 1006.52 97.26 1008 97.26H1010.36V96.06C1010.36 94.3667 1009.49 93.52 1007.74 93.52C1007.06 93.52 1006.49 93.6667 1006.04 93.96C1005.59 94.24 1005.22 94.6467 1004.94 95.18L1004.22 94.58C1004.5 93.98 1004.93 93.4867 1005.5 93.1C1006.09 92.7133 1006.85 92.52 1007.78 92.52C1008.98 92.52 1009.9 92.82 1010.54 93.42C1011.18 94.02 1011.5 94.86 1011.5 95.94V102H1012.88V103H1011.72ZM1007.38 102.26C1007.79 102.26 1008.18 102.207 1008.54 102.1C1008.9 101.993 1009.21 101.847 1009.48 101.66C1009.76 101.46 1009.97 101.227 1010.12 100.96C1010.28 100.68 1010.36 100.367 1010.36 100.02V98.12H1007.96C1006.93 98.12 1006.19 98.2867 1005.72 98.62C1005.27 98.94 1005.04 99.3867 1005.04 99.96V100.44C1005.04 101.04 1005.25 101.493 1005.68 101.8C1006.11 102.107 1006.67 102.26 1007.38 102.26ZM1018.13 103.24C1017.23 103.24 1016.47 103.073 1015.83 102.74C1015.2 102.407 1014.65 101.92 1014.19 101.28L1015.03 100.62C1015.45 101.18 1015.92 101.593 1016.43 101.86C1016.93 102.127 1017.53 102.26 1018.21 102.26C1018.99 102.26 1019.6 102.093 1020.03 101.76C1020.45 101.427 1020.67 100.947 1020.67 100.32C1020.67 99.7733 1020.5 99.3467 1020.17 99.04C1019.85 98.72 1019.31 98.5067 1018.57 98.4L1017.73 98.26C1017.26 98.1933 1016.83 98.0933 1016.45 97.96C1016.06 97.8267 1015.73 97.6467 1015.45 97.42C1015.18 97.1933 1014.97 96.92 1014.81 96.6C1014.66 96.2667 1014.59 95.8667 1014.59 95.4C1014.59 94.92 1014.67 94.5 1014.85 94.14C1015.03 93.78 1015.28 93.48 1015.59 93.24C1015.89 93 1016.26 92.82 1016.69 92.7C1017.11 92.58 1017.57 92.52 1018.07 92.52C1018.92 92.52 1019.62 92.6667 1020.17 92.96C1020.71 93.2533 1021.18 93.6333 1021.57 94.1L1020.81 94.8C1020.54 94.48 1020.18 94.1867 1019.73 93.92C1019.29 93.64 1018.71 93.5 1018.01 93.5C1017.27 93.5 1016.7 93.66 1016.29 93.98C1015.89 94.3 1015.69 94.7533 1015.69 95.34C1015.69 95.94 1015.87 96.3733 1016.23 96.64C1016.6 96.9067 1017.15 97.1 1017.89 97.22L1018.71 97.34C1019.75 97.5 1020.51 97.8133 1021.01 98.28C1021.51 98.7333 1021.77 99.3733 1021.77 100.2C1021.77 101.16 1021.44 101.907 1020.79 102.44C1020.15 102.973 1019.26 103.24 1018.13 103.24Z" fill="white"/>
<path d="M1135.09 104L1130.41 90.04H1131.71L1135.83 102.78H1135.91L1140.07 90.04H1141.33L1136.61 104H1135.09ZM1144.23 90.98C1143.96 90.98 1143.76 90.9133 1143.63 90.78C1143.51 90.6467 1143.45 90.4733 1143.45 90.26V90.06C1143.45 89.8467 1143.51 89.6733 1143.63 89.54C1143.76 89.4067 1143.96 89.34 1144.23 89.34C1144.49 89.34 1144.69 89.4067 1144.81 89.54C1144.94 89.6733 1145.01 89.8467 1145.01 90.06V90.26C1145.01 90.4733 1144.94 90.6467 1144.81 90.78C1144.69 90.9133 1144.49 90.98 1144.23 90.98ZM1143.67 93.76H1144.81V104H1143.67V93.76ZM1151.43 104.24C1150.54 104.24 1149.77 104.073 1149.13 103.74C1148.5 103.407 1147.96 102.92 1147.49 102.28L1148.33 101.62C1148.76 102.18 1149.22 102.593 1149.73 102.86C1150.24 103.127 1150.83 103.26 1151.51 103.26C1152.3 103.26 1152.9 103.093 1153.33 102.76C1153.76 102.427 1153.97 101.947 1153.97 101.32C1153.97 100.773 1153.8 100.347 1153.47 100.04C1153.15 99.72 1152.62 99.5067 1151.87 99.4L1151.03 99.26C1150.56 99.1933 1150.14 99.0933 1149.75 98.96C1149.36 98.8267 1149.03 98.6467 1148.75 98.42C1148.48 98.1933 1148.27 97.92 1148.11 97.6C1147.96 97.2667 1147.89 96.8667 1147.89 96.4C1147.89 95.92 1147.98 95.5 1148.15 95.14C1148.34 94.78 1148.58 94.48 1148.89 94.24C1149.2 94 1149.56 93.82 1149.99 93.7C1150.42 93.58 1150.88 93.52 1151.37 93.52C1152.22 93.52 1152.92 93.6667 1153.47 93.96C1154.02 94.2533 1154.48 94.6333 1154.87 95.1L1154.11 95.8C1153.84 95.48 1153.48 95.1867 1153.03 94.92C1152.59 94.64 1152.02 94.5 1151.31 94.5C1150.58 94.5 1150 94.66 1149.59 94.98C1149.19 95.3 1148.99 95.7533 1148.99 96.34C1148.99 96.94 1149.17 97.3733 1149.53 97.64C1149.9 97.9067 1150.46 98.1 1151.19 98.22L1152.01 98.34C1153.05 98.5 1153.82 98.8133 1154.31 99.28C1154.82 99.7333 1155.07 100.373 1155.07 101.2C1155.07 102.16 1154.74 102.907 1154.09 103.44C1153.45 103.973 1152.56 104.24 1151.43 104.24ZM1164.46 102.38H1164.38C1164.29 102.62 1164.16 102.853 1164 103.08C1163.84 103.307 1163.64 103.507 1163.4 103.68C1163.16 103.84 1162.87 103.973 1162.54 104.08C1162.22 104.187 1161.84 104.24 1161.4 104.24C1160.31 104.24 1159.45 103.907 1158.84 103.24C1158.23 102.56 1157.92 101.593 1157.92 100.34V93.76H1159.06V100.12C1159.06 101.173 1159.29 101.953 1159.74 102.46C1160.19 102.967 1160.85 103.22 1161.7 103.22C1162.06 103.22 1162.4 103.173 1162.72 103.08C1163.05 102.987 1163.35 102.847 1163.6 102.66C1163.87 102.473 1164.07 102.24 1164.22 101.96C1164.38 101.667 1164.46 101.327 1164.46 100.94V93.76H1165.6V104H1164.46V102.38ZM1176.37 104C1175.93 104 1175.61 103.887 1175.41 103.66C1175.21 103.433 1175.1 103.127 1175.07 102.74V102.38H1174.97C1174.74 102.953 1174.37 103.407 1173.85 103.74C1173.33 104.073 1172.67 104.24 1171.87 104.24C1170.79 104.24 1169.96 103.98 1169.37 103.46C1168.78 102.927 1168.49 102.18 1168.49 101.22C1168.49 100.313 1168.81 99.5933 1169.45 99.06C1170.1 98.5267 1171.17 98.26 1172.65 98.26H1175.01V97.06C1175.01 95.3667 1174.14 94.52 1172.39 94.52C1171.71 94.52 1171.14 94.6667 1170.69 94.96C1170.24 95.24 1169.87 95.6467 1169.59 96.18L1168.87 95.58C1169.15 94.98 1169.58 94.4867 1170.15 94.1C1170.74 93.7133 1171.5 93.52 1172.43 93.52C1173.63 93.52 1174.55 93.82 1175.19 94.42C1175.83 95.02 1176.15 95.86 1176.15 96.94V103H1177.53V104H1176.37ZM1172.03 103.26C1172.44 103.26 1172.83 103.207 1173.19 103.1C1173.55 102.993 1173.86 102.847 1174.13 102.66C1174.41 102.46 1174.62 102.227 1174.77 101.96C1174.93 101.68 1175.01 101.367 1175.01 101.02V99.12H1172.61C1171.58 99.12 1170.84 99.2867 1170.37 99.62C1169.92 99.94 1169.69 100.387 1169.69 100.96V101.44C1169.69 102.04 1169.9 102.493 1170.33 102.8C1170.76 103.107 1171.32 103.26 1172.03 103.26ZM1181.14 104C1180.72 104 1180.41 103.887 1180.2 103.66C1179.98 103.433 1179.88 103.133 1179.88 102.76V89.2H1181.02V103H1182.6V104H1181.14ZM1185.71 90.98C1185.44 90.98 1185.24 90.9133 1185.11 90.78C1184.99 90.6467 1184.93 90.4733 1184.93 90.26V90.06C1184.93 89.8467 1184.99 89.6733 1185.11 89.54C1185.24 89.4067 1185.44 89.34 1185.71 89.34C1185.98 89.34 1186.17 89.4067 1186.29 89.54C1186.42 89.6733 1186.49 89.8467 1186.49 90.06V90.26C1186.49 90.4733 1186.42 90.6467 1186.29 90.78C1186.17 90.9133 1185.98 90.98 1185.71 90.98ZM1185.15 93.76H1186.29V104H1185.15V93.76ZM1188.77 104V103.02L1194.97 94.76H1188.95V93.76H1196.33V94.66L1190.05 103H1196.49V104H1188.77ZM1205.98 104C1205.54 104 1205.22 103.887 1205.02 103.66C1204.82 103.433 1204.71 103.127 1204.68 102.74V102.38H1204.58C1204.35 102.953 1203.98 103.407 1203.46 103.74C1202.94 104.073 1202.28 104.24 1201.48 104.24C1200.4 104.24 1199.57 103.98 1198.98 103.46C1198.39 102.927 1198.1 102.18 1198.1 101.22C1198.1 100.313 1198.42 99.5933 1199.06 99.06C1199.71 98.5267 1200.78 98.26 1202.26 98.26H1204.62V97.06C1204.62 95.3667 1203.75 94.52 1202 94.52C1201.32 94.52 1200.75 94.6667 1200.3 94.96C1199.85 95.24 1199.48 95.6467 1199.2 96.18L1198.48 95.58C1198.76 94.98 1199.19 94.4867 1199.76 94.1C1200.35 93.7133 1201.11 93.52 1202.04 93.52C1203.24 93.52 1204.16 93.82 1204.8 94.42C1205.44 95.02 1205.76 95.86 1205.76 96.94V103H1207.14V104H1205.98ZM1201.64 103.26C1202.05 103.26 1202.44 103.207 1202.8 103.1C1203.16 102.993 1203.47 102.847 1203.74 102.66C1204.02 102.46 1204.23 102.227 1204.38 101.96C1204.54 101.68 1204.62 101.367 1204.62 101.02V99.12H1202.22C1201.19 99.12 1200.45 99.2867 1199.98 99.62C1199.53 99.94 1199.3 100.387 1199.3 100.96V101.44C1199.3 102.04 1199.51 102.493 1199.94 102.8C1200.37 103.107 1200.93 103.26 1201.64 103.26ZM1213.09 104.24C1211.67 104.24 1210.58 103.773 1209.81 102.84C1209.05 101.907 1208.67 100.587 1208.67 98.88C1208.67 97.1733 1209.05 95.8533 1209.81 94.92C1210.58 93.9867 1211.67 93.52 1213.09 93.52C1214.03 93.52 1214.8 93.7267 1215.39 94.14C1215.97 94.5533 1216.42 95.1 1216.73 95.78L1215.77 96.26C1215.53 95.7 1215.19 95.2733 1214.75 94.98C1214.32 94.6867 1213.77 94.54 1213.09 94.54C1212.05 94.54 1211.25 94.8733 1210.71 95.54C1210.16 96.2067 1209.89 97.08 1209.89 98.16V99.6C1209.89 100.68 1210.16 101.553 1210.71 102.22C1211.25 102.887 1212.05 103.22 1213.09 103.22C1213.79 103.22 1214.39 103.067 1214.87 102.76C1215.35 102.453 1215.73 102.013 1216.03 101.44L1216.87 102C1216.53 102.68 1216.05 103.227 1215.43 103.64C1214.81 104.04 1214.03 104.24 1213.09 104.24ZM1219.97 90.98C1219.7 90.98 1219.5 90.9133 1219.37 90.78C1219.25 90.6467 1219.19 90.4733 1219.19 90.26V90.06C1219.19 89.8467 1219.25 89.6733 1219.37 89.54C1219.5 89.4067 1219.7 89.34 1219.97 89.34C1220.24 89.34 1220.43 89.4067 1220.55 89.54C1220.68 89.6733 1220.75 89.8467 1220.75 90.06V90.26C1220.75 90.4733 1220.68 90.6467 1220.55 90.78C1220.43 90.9133 1220.24 90.98 1219.97 90.98ZM1219.41 93.76H1220.55V104H1219.41V93.76ZM1227.91 104.24C1227.23 104.24 1226.62 104.12 1226.07 103.88C1225.53 103.64 1225.06 103.293 1224.67 102.84C1224.29 102.373 1223.99 101.807 1223.77 101.14C1223.56 100.473 1223.45 99.72 1223.45 98.88C1223.45 98.04 1223.56 97.2933 1223.77 96.64C1223.99 95.9733 1224.29 95.4133 1224.67 94.96C1225.06 94.4933 1225.53 94.14 1226.07 93.9C1226.62 93.6467 1227.23 93.52 1227.91 93.52C1228.59 93.52 1229.21 93.6467 1229.75 93.9C1230.3 94.14 1230.77 94.4933 1231.15 94.96C1231.54 95.4133 1231.84 95.9733 1232.05 96.64C1232.27 97.2933 1232.37 98.04 1232.37 98.88C1232.37 99.72 1232.27 100.473 1232.05 101.14C1231.84 101.807 1231.54 102.373 1231.15 102.84C1230.77 103.293 1230.3 103.64 1229.75 103.88C1229.21 104.12 1228.59 104.24 1227.91 104.24ZM1227.91 103.22C1228.91 103.22 1229.7 102.907 1230.27 102.28C1230.86 101.653 1231.15 100.733 1231.15 99.52V98.24C1231.15 97.04 1230.86 96.1267 1230.27 95.5C1229.7 94.86 1228.91 94.54 1227.91 94.54C1226.91 94.54 1226.12 94.8533 1225.53 95.48C1224.96 96.1067 1224.67 97.0267 1224.67 98.24V99.52C1224.67 100.72 1224.96 101.64 1225.53 102.28C1226.12 102.907 1226.91 103.22 1227.91 103.22ZM1235.27 104V93.76H1236.41V95.38H1236.47C1236.69 94.8467 1237.05 94.4067 1237.53 94.06C1238.01 93.7 1238.66 93.52 1239.49 93.52C1240.58 93.52 1241.43 93.86 1242.03 94.54C1242.64 95.2067 1242.95 96.1667 1242.95 97.42V104H1241.81V97.62C1241.81 96.58 1241.58 95.8067 1241.13 95.3C1240.69 94.7933 1240.04 94.54 1239.19 94.54C1238.83 94.54 1238.48 94.5867 1238.15 94.68C1237.81 94.7733 1237.51 94.9133 1237.25 95.1C1236.99 95.2867 1236.79 95.5267 1236.63 95.82C1236.48 96.1 1236.41 96.4267 1236.41 96.8V104H1235.27ZM1250.2 104.24C1249.52 104.24 1248.9 104.12 1248.34 103.88C1247.79 103.64 1247.32 103.293 1246.92 102.84C1246.53 102.373 1246.23 101.807 1246.02 101.14C1245.82 100.473 1245.72 99.72 1245.72 98.88C1245.72 98.04 1245.82 97.2933 1246.02 96.64C1246.23 95.9733 1246.53 95.4133 1246.92 94.96C1247.32 94.4933 1247.79 94.14 1248.34 93.9C1248.88 93.6467 1249.5 93.52 1250.18 93.52C1250.83 93.52 1251.42 93.6467 1251.96 93.9C1252.49 94.14 1252.94 94.48 1253.32 94.92C1253.69 95.36 1253.98 95.8933 1254.18 96.52C1254.39 97.1333 1254.5 97.8133 1254.5 98.56V99.1H1246.92V99.6C1246.92 100.133 1246.99 100.627 1247.14 101.08C1247.3 101.52 1247.52 101.9 1247.8 102.22C1248.09 102.54 1248.44 102.793 1248.86 102.98C1249.27 103.153 1249.74 103.24 1250.26 103.24C1251.75 103.24 1252.78 102.553 1253.36 101.18L1254.2 101.74C1253.88 102.5 1253.37 103.107 1252.68 103.56C1252 104.013 1251.17 104.24 1250.2 104.24ZM1250.18 94.48C1249.68 94.48 1249.24 94.5733 1248.84 94.76C1248.44 94.9333 1248.09 95.18 1247.8 95.5C1247.52 95.82 1247.3 96.2067 1247.14 96.66C1246.99 97.1 1246.92 97.5867 1246.92 98.12V98.22H1253.26V98.06C1253.26 97.5267 1253.18 97.04 1253.04 96.6C1252.89 96.1467 1252.68 95.7667 1252.4 95.46C1252.13 95.1533 1251.8 94.9133 1251.42 94.74C1251.04 94.5667 1250.63 94.48 1250.18 94.48ZM1260.3 104.24C1259.4 104.24 1258.64 104.073 1258 103.74C1257.37 103.407 1256.82 102.92 1256.36 102.28L1257.2 101.62C1257.62 102.18 1258.09 102.593 1258.6 102.86C1259.1 103.127 1259.7 103.26 1260.38 103.26C1261.16 103.26 1261.77 103.093 1262.2 102.76C1262.62 102.427 1262.84 101.947 1262.84 101.32C1262.84 100.773 1262.67 100.347 1262.34 100.04C1262.02 99.72 1261.48 99.5067 1260.74 99.4L1259.9 99.26C1259.43 99.1933 1259 99.0933 1258.62 98.96C1258.23 98.8267 1257.9 98.6467 1257.62 98.42C1257.35 98.1933 1257.14 97.92 1256.98 97.6C1256.83 97.2667 1256.76 96.8667 1256.76 96.4C1256.76 95.92 1256.84 95.5 1257.02 95.14C1257.2 94.78 1257.45 94.48 1257.76 94.24C1258.06 94 1258.43 93.82 1258.86 93.7C1259.28 93.58 1259.74 93.52 1260.24 93.52C1261.09 93.52 1261.79 93.6667 1262.34 93.96C1262.88 94.2533 1263.35 94.6333 1263.74 95.1L1262.98 95.8C1262.71 95.48 1262.35 95.1867 1261.9 94.92C1261.46 94.64 1260.88 94.5 1260.18 94.5C1259.44 94.5 1258.87 94.66 1258.46 94.98C1258.06 95.3 1257.86 95.7533 1257.86 96.34C1257.86 96.94 1258.04 97.3733 1258.4 97.64C1258.77 97.9067 1259.32 98.1 1260.06 98.22L1260.88 98.34C1261.92 98.5 1262.68 98.8133 1263.18 99.28C1263.68 99.7333 1263.94 100.373 1263.94 101.2C1263.94 102.16 1263.61 102.907 1262.96 103.44C1262.32 103.973 1261.43 104.24 1260.3 104.24Z" fill="white"/>
<path d="M713.53 252.53C713.823 252.237 713.823 251.763 713.53 251.47L708.757 246.697C708.464 246.404 707.99 246.404 707.697 246.697C707.404 246.99 707.404 247.464 707.697 247.757L711.939 252L707.697 256.243C707.404 256.536 707.404 257.01 707.697 257.303C707.99 257.596 708.464 257.596 708.757 257.303L713.53 252.53ZM682 252.75H713V251.25H682V252.75Z" fill="url(#paint4_linear_378_318)"/>
<path d="M912.53 252.53C912.823 252.237 912.823 251.763 912.53 251.47L907.757 246.697C907.464 246.404 906.99 246.404 906.697 246.697C906.404 246.99 906.404 247.464 906.697 247.757L910.939 252L906.697 256.243C906.404 256.536 906.404 257.01 906.697 257.303C906.99 257.596 907.464 257.596 907.757 257.303L912.53 252.53ZM881 252.75H912V251.25H881V252.75Z" fill="url(#paint5_linear_378_318)"/>
<path d="M1109.53 252.53C1109.82 252.237 1109.82 251.763 1109.53 251.47L1104.76 246.697C1104.46 246.404 1103.99 246.404 1103.7 246.697C1103.4 246.99 1103.4 247.464 1103.7 247.757L1107.94 252L1103.7 256.243C1103.4 256.536 1103.4 257.01 1103.7 257.303C1103.99 257.596 1104.46 257.596 1104.76 257.303L1109.53 252.53ZM1078 252.75H1109V251.25H1078V252.75Z" fill="url(#paint6_linear_378_318)"/>
<path d="M799 231.167L778.167 241.583L799 252L819.833 241.583L799 231.167Z" stroke="#D9D9D9" stroke-width="1.5" stroke-linecap="round" stroke-linejoin="round"/>
<path d="M778.167 262.417L799 272.833L819.833 262.417" stroke="#D9D9D9" stroke-width="1.5" stroke-linecap="round" stroke-linejoin="round"/>
<path d="M778.167 252L799 262.417L819.833 252" stroke="#D9D9D9" stroke-width="1.6" stroke-linecap="round" stroke-linejoin="round"/>
<path d="M997 266.583L1011.58 252L1017.83 258.25L1003.25 272.833L997 266.583Z" stroke="#D9D9D9" stroke-width="1.5" stroke-linecap="round" stroke-linejoin="round"/>
<path d="M1009.5 254.083L1006.37 238.458L976.167 231.167L983.458 261.375L999.083 264.5L1009.5 254.083Z" stroke="#D9D9D9" stroke-width="1.5" stroke-linecap="round" stroke-linejoin="round"/>
<path d="M976.167 231.167L991.971 246.971" stroke="#D9D9D9" stroke-width="1.5" stroke-linecap="round" stroke-linejoin="round"/>
<path d="M994.917 254.083C997.218 254.083 999.083 252.218 999.083 249.917C999.083 247.615 997.218 245.75 994.917 245.75C992.615 245.75 990.75 247.615 990.75 249.917C990.75 252.218 992.615 254.083 994.917 254.083Z" stroke="#D9D9D9" stroke-width="1.5" stroke-linecap="round" stroke-linejoin="round"/>
<defs>
<radialGradient id="paint0_radial_378_318" cx="0" cy="0" r="1" gradientUnits="userSpaceOnUse" gradientTransform="translate(1197 257) rotate(90) scale(30.5)">
<stop stop-color="#D9D9D9"/>
<stop offset="1" stop-color="#737373"/>
</radialGradient>
<linearGradient id="paint1_linear_378_318" x1="1215.39" y1="412.569" x2="1212.16" y2="321.928" gradientUnits="userSpaceOnUse">
<stop stop-color="white"/>
<stop offset="1" stop-color="white" stop-opacity="0"/>
</linearGradient>
<linearGradient id="paint2_linear_378_318" x1="388.162" y1="305" x2="713.903" y2="570.49" gradientUnits="userSpaceOnUse">
<stop stop-color="white"/>
<stop offset="1" stop-color="white" stop-opacity="0"/>
</linearGradient>
<linearGradient id="paint3_linear_378_318" x1="287.745" y1="252" x2="492" y2="252" gradientUnits="userSpaceOnUse">
<stop stop-color="white" stop-opacity="0"/>
<stop offset="1" stop-color="white"/>
</linearGradient>
<linearGradient id="paint4_linear_378_318" x1="688" y1="252" x2="713" y2="252" gradientUnits="userSpaceOnUse">
<stop stop-color="white" stop-opacity="0"/>
<stop offset="1" stop-color="white"/>
</linearGradient>
<linearGradient id="paint5_linear_378_318" x1="887" y1="252" x2="912" y2="252" gradientUnits="userSpaceOnUse">
<stop stop-color="white" stop-opacity="0"/>
<stop offset="1" stop-color="white"/>
</linearGradient>
<linearGradient id="paint6_linear_378_318" x1="1084" y1="252" x2="1109" y2="252" gradientUnits="userSpaceOnUse">
<stop stop-color="white" stop-opacity="0"/>
<stop offset="1" stop-color="white"/>
</linearGradient>
</defs>
</svg>
